# xmcd
#
# Track frame offsets:
#	150
#	19054
#	34370
#	53794
#	70402
#	87565
#	104053
#	120550
#	137760
#	152591
#	167860
#	182342
#	200255
#	218436
#
# Disc length: 3088 seconds
#
# Revision: 1
# Processed by: cddbd v1.5.1PL2 Copyright (c) Steve Scherf et al.
# Submitted via: audiograbber 1.83.01
#
DISCID=c20c0e0e
DTITLE=Star Disc - SD130
DYEAR=1900
DGENRE=Karaoke
TTITLE0=Urban, Keith - Making Memories Of Us
TTITLE1=Wilson, Gretchen - Homewrecker
TTITLE2=Rascal Flatts - Fast Cars And Freedom
TTITLE3=McEntire, Reba - My Sister
TTITLE4=Tritt, Travis - I See Me
TTITLE5=Rimes, LeAnn - Probably Wouldn't Be This Way
TTITLE6=Green, Pat - Baby Doll
TTITLE7=Pinson, Bobby - Don't Ask Me How I Know
TTITLE8=McComas, Brian - Middle Of Nowhere, The
TTITLE9=Diamond Rio - One Believer
TTITLE10=Wrights, The - Down This Road
TTITLE11=Hanna and McEuen - Something Like A Broken Heart
TTITLE12=Hughes, Jedd - Soldier For The Lonely
TTITLE13=Willmon, Trent - Good Life, The
EXTD=
EXTT0=
EXTT1=
EXTT2=
EXTT3=
EXTT4=
EXTT5=
EXTT6=
EXTT7=
EXTT8=
EXTT9=
EXTT10=
EXTT11=
EXTT12=
EXTT13=
PLAYORDER=
